<?xml version="1.0" encoding="UTF-8"?>
<svg xmlns="http://www.w3.org/2000/svg" xmlns:xlink="http://www.w3.org/1999/xlink" width="271px" height="305px" viewBox="0 0 271 304" version="1.1">
<defs>
<clipPath id="clip1">
  <path d="M 71.25 76 L 199.746094 76 L 199.746094 228 L 71.25 228 Z M 71.25 76 "/>
</clipPath>
</defs>
<g id="surface1">
<path style=" stroke:none;fill-rule:nonzero;fill:rgb(75.686275%,0%,0%);fill-opacity:1;" d="M 185.957031 34.628906 C 186.554688 34.628906 191.347656 37.019531 194.042969 37.914062 C 193.144531 38.210938 191.046875 37.316406 188.652344 36.421875 C 189.25 36.421875 190.449219 36.71875 191.644531 37.316406 C 191.046875 36.71875 186.554688 35.226562 185.957031 34.628906 M 141.339844 25.371094 C 142.238281 25.074219 152.71875 26.566406 157.507812 26.867188 C 157.808594 26.566406 156.910156 26.566406 155.710938 26.269531 C 157.210938 25.96875 160.203125 26.867188 162.300781 27.164062 C 156.011719 27.464844 149.125 25.671875 143.136719 26.269531 C 141.039062 26.269531 142.539062 25.671875 141.339844 25.371094 M 132.65625 25.371094 C 138.046875 25.371094 142.238281 25.371094 134.453125 25.96875 C 133.554688 25.671875 132.355469 25.671875 132.65625 25.371094 M 217.398438 50.15625 C 217.996094 50.15625 220.394531 52.84375 221.589844 53.738281 C 221.289062 54.039062 218.894531 51.648438 217.699219 50.753906 C 218 51.050781 217.699219 50.753906 217.398438 50.15625 M 211.410156 46.273438 C 209.015625 44.183594 208.117188 44.183594 207.816406 42.988281 C 209.914062 44.183594 211.410156 45.378906 211.410156 46.273438 M 172.78125 27.464844 C 173.082031 27.164062 173.679688 27.761719 175.175781 28.058594 C 173.378906 27.761719 173.679688 28.058594 174.277344 28.65625 C 172.183594 28.359375 171.582031 28.058594 172.183594 27.464844 C 173.378906 28.058594 173.679688 27.761719 172.78125 27.464844 M 87.738281 31.046875 C 87.738281 30.746094 88.933594 30.148438 89.832031 29.851562 C 88.933594 30.449219 89.234375 30.746094 90.734375 30.148438 C 90.734375 30.449219 88.933594 31.046875 87.738281 31.644531 C 88.335938 31.34375 88.933594 30.449219 87.738281 31.046875 M 178.769531 24.476562 C 177.871094 24.777344 174.578125 22.984375 171.285156 22.386719 C 169.488281 21.789062 178.46875 23.878906 178.769531 24.476562 M 2.097656 171.980469 C 3.894531 179.445312 2.695312 179.144531 2.097656 171.980469 M 2.394531 127.191406 C 2.695312 125.996094 2.996094 122.710938 3.292969 123.011719 C 2.394531 130.175781 0.898438 133.460938 0.597656 138.835938 C 1.496094 134.058594 0.300781 141.523438 0 143.316406 C 0.300781 145.703125 0.300781 141.820312 0.898438 142.417969 C 1.496094 143.316406 -0.300781 155.855469 0.300781 148.988281 C -0.300781 155.257812 0.300781 162.125 1.496094 163.917969 C 0 173.472656 7.488281 194.96875 8.984375 199.449219 C 9.285156 199.75 8.984375 197.957031 9.582031 199.152344 C 10.179688 203.03125 12.875 205.71875 13.773438 209.898438 C 14.671875 211.09375 18.265625 217.664062 18.863281 219.15625 C 20.0625 221.546875 20.660156 221.246094 21.859375 223.636719 C 25.453125 230.503906 31.140625 237.070312 36.53125 243.34375 C 53.898438 263.644531 80.550781 280.367188 110.195312 286.339844 C 139.84375 292.609375 170.984375 288.132812 195.238281 276.484375 C 196.738281 275.589844 196.4375 275.292969 198.234375 274.695312 C 206.617188 272.007812 216.800781 263.347656 222.488281 260.0625 C 225.183594 257.078125 232.371094 252 233.269531 249.015625 C 238.359375 244.835938 243.449219 237.96875 246.144531 233.488281 C 247.644531 231.101562 248.839844 231.101562 249.4375 229.605469 C 249.140625 229.605469 254.230469 223.335938 255.726562 219.753906 C 255.128906 219.753906 254.230469 221.546875 254.230469 219.753906 C 265.011719 199.152344 271 171.382812 267.707031 152.273438 C 268.304688 175.863281 262.316406 202.136719 250.9375 218.859375 C 245.847656 229.605469 235.363281 241.25 225.785156 249.613281 C 224.285156 251.105469 222.789062 252.898438 220.992188 254.089844 C 215.300781 258.867188 209.015625 262.75 202.425781 266.332031 C 186.855469 274.992188 169.488281 282.457031 149.125 282.753906 C 184.160156 279.769531 215.601562 262.152344 232.96875 240.65625 C 219.792969 253.492188 214.105469 258.570312 199.433594 266.035156 C 198.234375 268.125 188.351562 272.304688 181.765625 274.097656 C 185.65625 272.304688 193.742188 269.320312 196.4375 266.929688 C 174.578125 277.382812 150.324219 283.351562 127.566406 280.070312 C 136.25 280.070312 148.527344 280.367188 160.203125 278.277344 C 162 277.679688 162.898438 277.082031 164.996094 276.785156 C 187.753906 271.707031 209.613281 260.660156 225.183594 245.132812 C 216.203125 253.195312 202.726562 262.75 194.042969 265.738281 C 202.128906 261.257812 216.800781 252.597656 221.589844 246.03125 C 212.007812 255.585938 194.042969 265.140625 182.664062 269.320312 C 180.867188 269.617188 183.859375 268.125 180.867188 269.320312 C 177.273438 270.214844 178.769531 270.214844 177.871094 270.8125 C 164.097656 274.695312 148.226562 277.976562 135.050781 276.785156 C 132.65625 276.484375 131.757812 275.886719 129.660156 275.886719 C 127.265625 275.589844 125.167969 275.589844 122.472656 275.589844 C 111.992188 274.394531 100.613281 270.214844 92.230469 266.632812 C 87.738281 264.542969 83.246094 263.050781 78.753906 260.363281 C 75.160156 258.273438 72.167969 255.882812 69.171875 253.496094 C 57.792969 245.132812 48.210938 236.773438 39.226562 224.828125 C 23.058594 202.4375 14.671875 174.367188 15.871094 146.601562 C 17.066406 118.832031 28.148438 91.660156 45.816406 71.652344 C 44.917969 72.550781 47.011719 69.5625 48.808594 67.773438 C 48.808594 68.371094 48.511719 69.265625 50.605469 67.175781 C 52.402344 65.085938 50.007812 66.578125 50.90625 65.382812 C 69.472656 45.078125 101.8125 28.65625 135.050781 28.058594 C 136.25 27.164062 138.34375 25.96875 140.742188 26.566406 C 140.742188 26.867188 139.242188 26.867188 139.242188 26.867188 C 142.535156 26.566406 145.53125 26.566406 147.027344 27.164062 C 147.328125 26.863281 145.832031 26.566406 147.027344 26.566406 C 149.125 27.164062 149.722656 26.566406 150.921875 27.164062 C 150.023438 27.164062 149.125 27.164062 148.527344 27.464844 C 156.011719 27.464844 160.804688 29.253906 168.289062 29.851562 C 164.394531 28.957031 163.5 28.957031 160.503906 28.058594 C 163.796875 28.65625 165.292969 29.253906 166.792969 28.957031 C 166.191406 28.957031 166.492188 28.058594 167.09375 28.359375 C 173.082031 29.851562 173.679688 30.449219 179.96875 32.539062 C 180.566406 31.941406 177.273438 31.644531 176.375 30.746094 C 182.363281 32.835938 187.753906 34.328125 191.347656 36.71875 C 190.148438 35.824219 186.554688 34.628906 183.859375 33.433594 C 183.5625 33.734375 184.757812 34.03125 185.058594 34.628906 C 182.0625 33.136719 177.871094 31.644531 173.679688 31.046875 C 177.273438 31.941406 179.667969 33.136719 181.167969 33.734375 C 177.871094 33.136719 173.679688 31.046875 168.886719 30.148438 C 176.671875 32.539062 191.347656 37.914062 200.328125 42.691406 C 197.035156 40.601562 193.144531 39.109375 191.046875 37.914062 C 192.84375 38.210938 194.941406 39.40625 194.941406 38.808594 C 197.035156 39.703125 199.730469 41.796875 201.226562 42.09375 C 198.535156 40.300781 193.144531 37.613281 191.347656 36.71875 C 213.804688 46.871094 233.867188 63.890625 246.746094 85.6875 C 247.941406 87.777344 249.738281 92.554688 251.238281 93.152344 C 250.9375 91.660156 249.738281 90.761719 248.542969 88.375 C 249.140625 88.375 249.140625 87.480469 248.542969 86.582031 C 247.34375 85.089844 248.542969 87.777344 247.34375 86.285156 C 241.953125 76.429688 235.363281 67.773438 225.183594 58.21875 C 230.875 63.59375 226.683594 59.710938 225.484375 57.917969 C 233.269531 64.785156 242.253906 76.429688 246.144531 82.402344 C 245.546875 81.507812 245.246094 80.910156 245.546875 80.910156 C 252.734375 93.152344 257.226562 104.199219 261.71875 120.023438 C 262.015625 120.324219 261.71875 118.832031 262.316406 119.726562 C 265.3125 132.269531 266.210938 142.71875 265.910156 152.273438 C 268.304688 136.148438 262.914062 111.066406 253.332031 91.359375 C 252.136719 88.972656 252.136719 90.761719 250.9375 88.078125 C 250.9375 87.179688 250.039062 85.390625 249.4375 84.195312 C 237.460938 64.488281 222.789062 50.453125 205.421875 39.40625 C 206.617188 40.003906 209.015625 41.796875 209.015625 41.496094 C 176.675781 20.296875 139.242188 17.3125 108.398438 23.878906 C 106.304688 24.777344 105.40625 25.671875 103.007812 26.867188 C 107.5 25.371094 110.195312 25.074219 114.390625 24.179688 C 115.289062 23.28125 110.496094 24.476562 112.59375 23.582031 C 112.890625 23.878906 116.785156 22.984375 117.683594 23.28125 C 117.683594 23.582031 116.484375 23.878906 116.183594 24.179688 C 126.066406 22.089844 136.25 21.789062 144.933594 22.386719 C 139.84375 22.6875 130.558594 21.789062 127.566406 23.28125 C 130.558594 22.984375 134.75 22.6875 137.445312 22.984375 C 133.851562 22.984375 127.265625 23.28125 124.269531 23.582031 C 123.96875 23.28125 129.0625 22.683594 125.769531 22.6875 C 124.269531 22.984375 121.875 22.984375 120.976562 23.878906 C 95.222656 26.269531 70.070312 39.703125 52.402344 55.53125 C 48.808594 58.515625 44.617188 61.800781 41.921875 65.085938 C 35.335938 72.550781 31.144531 80.015625 26.351562 86.582031 C 29.347656 80.3125 35.933594 70.757812 43.71875 62.695312 C 51.503906 54.632812 59.890625 47.765625 64.382812 44.183594 C 64.382812 45.378906 71.566406 39.703125 74.261719 37.914062 C 72.464844 39.40625 75.460938 37.316406 76.058594 37.613281 C 85.640625 31.941406 93.425781 29.851562 102.113281 26.566406 C 100.015625 27.164062 98.21875 27.761719 97.917969 27.464844 C 100.015625 26.867188 101.210938 26.269531 100.914062 25.96875 C 92.527344 28.359375 79.351562 34.03125 68.871094 40.300781 C 87.738281 27.464844 111.695312 19.699219 135.351562 19.402344 C 159.007812 18.804688 182.0625 24.777344 200.328125 34.332031 C 212.605469 39.707031 224.285156 49.558594 233.570312 59.113281 C 236.265625 61.503906 234.167969 58.515625 238.0625 62.695312 C 236.863281 62.097656 235.964844 61.503906 237.460938 63.292969 C 239.859375 65.980469 236.863281 61.203125 240.753906 65.980469 C 240.457031 65.980469 239.257812 64.488281 239.257812 65.085938 C 249.738281 74.339844 257.824219 91.0625 262.613281 102.109375 C 261.417969 97.632812 258.421875 91.359375 256.027344 86.882812 C 263.214844 100.019531 265.609375 107.78125 268.605469 119.429688 C 269.800781 120.324219 268.003906 115.25 269.203125 117.636719 C 269.503906 119.429688 269.800781 125.101562 271 125.996094 C 270.101562 120.324219 268.605469 113.457031 267.40625 112.261719 C 268.304688 112.859375 265.910156 105.394531 264.414062 103.601562 C 263.8125 98.828125 259.621094 90.464844 256.027344 84.195312 C 243.152344 59.113281 220.09375 38.511719 194.339844 27.164062 C 194.339844 26.566406 192.84375 25.96875 192.246094 25.371094 C 166.792969 14.625 136.246094 11.636719 106.902344 18.503906 C 77.257812 25.671875 49.410156 42.691406 29.644531 67.175781 C 30.542969 64.191406 38.03125 58.515625 38.328125 56.128906 C 29.644531 65.382812 20.363281 77.625 14.074219 90.761719 C 7.488281 103.902344 3.894531 117.339844 2.394531 127.191406 "/>
<g clip-path="url(#clip1)" clip-rule="nonzero">
<path style=" stroke:none;fill-rule:nonzero;fill:rgb(75.686275%,0%,0%);fill-opacity:1;" d="M 130.53125 227.964844 C 123.6875 227.964844 119.773438 226.457031 118.796875 223.445312 L 72.25 84.679688 C 71.585938 82.726562 71.25 81.464844 71.25 80.886719 C 71.25 79.378906 72.296875 78.207031 74.386719 77.363281 C 76.429688 76.476562 79.566406 76.035156 83.789062 76.035156 L 85.253906 76.035156 C 92.011719 76.035156 95.878906 77.5625 96.859375 80.621094 L 126.332031 172.644531 C 128.6875 179.78125 131.445312 189.511719 134.601562 201.835938 L 136.398438 208.683594 L 137.667969 208.683594 L 139.667969 200.039062 C 142.023438 188.691406 144.246094 179.78125 146.335938 173.308594 L 176.144531 80.621094 C 177.121094 77.5625 181.078125 76.035156 188.011719 76.035156 L 188.8125 76.035156 C 196.101562 76.035156 199.75 77.652344 199.75 80.886719 C 199.75 81.996094 199.371094 83.304688 198.613281 84.8125 L 152.203125 223.445312 C 151.226562 226.457031 147.3125 227.964844 140.46875 227.964844 Z M 130.53125 227.964844 "/>
</g>
</g>
</svg>
